<?xml version="1.0" encoding="utf-8"?>
<!-- Generator: Adobe Illustrator 21.1.0, SVG Export Plug-In . SVG Version: 6.00 Build 0)  -->
<svg version="1.1" id="Warstwa_1" xmlns="http://www.w3.org/2000/svg" xmlns:xlink="http://www.w3.org/1999/xlink" x="0px"
     y="0px"
     viewBox="0 0 1140 310" style="enable-background:new 0 0 1140 310;" xml:space="preserve">
<style type="text/css">
	.st0{fill:#3B3B3B;}
	.st1{opacity:0.75;fill:url(#SVGID_1_);}
	.st2{opacity:0.75;fill:url(#SVGID_2_);}
</style>
    <g>
	<path class="st0" d="M530.4,199.6c-4.9-1.4-9-3.5-12.4-6.1l4.7-11.6c6.9,5.1,14.9,7.6,23.9,7.6c3.8,0,6.7-0.6,8.7-1.9
		c2-1.2,3-3,3-5.3c0-2-0.7-3.5-2.1-4.5c-1.4-1.1-3.9-2-7.4-2.9l-10.7-2.4c-6.1-1.3-10.5-3.5-13.5-6.5c-2.9-3-4.4-6.9-4.4-11.8
		c0-4,1.1-7.5,3.4-10.6c2.3-3.1,5.4-5.5,9.5-7.1c4.1-1.7,8.7-2.5,14.1-2.5c4.6,0,9.1,0.7,13.4,2.1c4.3,1.4,8.1,3.4,11.4,6l-4.7,11.4
		c-6.8-4.9-13.5-7.3-20.3-7.3c-3.7,0-6.5,0.7-8.5,2c-2,1.3-3.1,3.2-3.1,5.6c0,1.8,0.6,3.3,1.9,4.4c1.3,1.2,3.4,2,6.2,2.7l11.1,2.5
		c6.5,1.4,11.3,3.7,14.3,6.7c3,3.1,4.5,7.1,4.5,12.1c0,6.1-2.4,10.9-7.3,14.4c-4.9,3.6-11.5,5.3-19.9,5.3
		C540.6,201.7,535.2,201,530.4,199.6z"/>
        <path class="st0" d="M636.3,140.4c3.8,4.5,5.7,11.2,5.7,20.2v40.1h-16.7v-39.1c0-5.1-1-8.8-2.9-11.1c-1.9-2.3-4.9-3.5-9-3.5
		c-4.8,0-8.7,1.5-11.6,4.5c-2.9,3-4.3,7.1-4.3,12.2v37h-16.7v-94.2h16.7v37.9c2.2-3.5,5.2-6.1,8.9-7.9c3.7-1.8,7.8-2.7,12.4-2.7
		C626.6,133.8,632.4,136,636.3,140.4z"/>
        <path class="st0" d="M650.7,106.1h18.4v16.4h-18.4V106.1z M651.7,201.7v-65.3h16.7v65.3H651.7z"/>
        <path class="st0" d="M706.8,136.4H724V149h-17.2v52.8h-16.7V149h-12.6v-12.6h12.6c0-9.3,2.4-16.4,7.3-21.1
		c4.9-4.7,12.4-7.3,22.6-7.9l6.5-0.4l1.1,12.4l-6.3,0.3c-5.3,0.3-9,1.4-11.2,3.5c-2.2,2.1-3.3,5.5-3.3,10.1V136.4z"/>
        <path class="st0" d="M769.3,189.8l-0.8,12.4c-2.7,0.3-5.1,0.4-7.3,0.4c-9.2,0-15.9-2.1-20.3-6.3c-4.4-4.2-6.5-10.5-6.5-18.9V149
		h-12.6v-12.6h12.6v-19.5H751v19.5h17.2V149H751v28.2c0,8.7,4.1,13.1,12.2,13.1C765.1,190.2,767.2,190.1,769.3,189.8z"/>
        <path class="st0" d="M776.6,194.4l4.1-9.7c6.7,5.2,14.5,7.7,23.4,7.7c4.4,0,7.7-0.7,10-2.2c2.3-1.5,3.5-3.5,3.5-6.2
		c0-2.3-0.8-4.1-2.3-5.5c-1.6-1.3-4.3-2.4-8.1-3.3l-10.8-2.4c-5.8-1.3-10.1-3.5-13.1-6.5c-2.9-3-4.4-6.9-4.4-11.5
		c0-5.9,2.4-10.6,7.1-14.3c4.8-3.6,11-5.5,18.8-5.5c4.6,0,9,0.7,13.2,2.2c4.2,1.5,7.8,3.5,10.8,6.2l-4.1,9.5
		c-6.4-5.1-13-7.6-19.9-7.6c-4.1,0-7.3,0.8-9.7,2.4c-2.4,1.6-3.5,3.8-3.5,6.5c0,2.2,0.7,4,2.2,5.4c1.5,1.4,3.8,2.4,7,3.1l11.1,2.5
		c6.3,1.4,11,3.6,13.9,6.6c2.9,3,4.4,6.9,4.4,11.7c0,5.9-2.4,10.5-7.1,14c-4.8,3.4-11.2,5.1-19.3,5.1
		C792.4,202.6,783.4,199.9,776.6,194.4z"/>
        <path class="st0" d="M850.3,198.5c-4.9-2.8-8.6-6.7-11.2-11.7c-2.6-5-3.9-10.9-3.9-17.7c0-6.8,1.4-12.7,4.1-17.9
		c2.7-5.2,6.5-9.2,11.5-12c4.9-2.8,10.7-4.3,17.3-4.3c4.5,0,8.9,0.8,13.2,2.3c4.2,1.5,7.7,3.6,10.4,6.1l-4.1,9.6
		c-5.9-4.8-12-7.2-18.3-7.2c-6.2,0-11.1,2-14.6,6.1c-3.5,4.1-5.3,9.8-5.3,17.2c0,7.3,1.7,12.9,5.2,16.9c3.5,4,8.4,5.9,14.7,5.9
		c6.3,0,12.4-2.4,18.3-7.2l4.1,9.7c-2.8,2.6-6.4,4.6-10.7,6.1c-4.3,1.5-8.7,2.2-13.4,2.2C860.9,202.6,855.1,201.3,850.3,198.5z"/>
        <path class="st0" d="M941,145.2l-8.1,0.8c-6.4,0.6-11,2.6-13.8,5.9c-2.8,3.3-4.2,7.5-4.2,12.6v36.2h-13.5v-65.2h13.1v11.4
		c3.5-7.7,10.6-11.9,21.2-12.7l4.4-0.3L941,145.2z"/>
        <path class="st0" d="M1000.5,171.4h-46.1c1,13.8,7.8,20.7,20.6,20.7c7.5,0,14.2-2.4,20.3-7.3l4.1,9.5c-3,2.6-6.8,4.6-11.2,6.1
		c-4.5,1.5-9,2.3-13.6,2.3c-10.4,0-18.6-3-24.6-8.9c-6-6-9-14.2-9-24.7c0-6.7,1.3-12.6,3.9-17.8c2.6-5.2,6.3-9.2,11.1-12
		c4.8-2.8,10.2-4.3,16.2-4.3c8.8,0,15.7,2.9,20.8,8.5c5,5.7,7.5,13.6,7.5,23.6V171.4z M960.1,149.7c-3.1,3.3-4.9,7.9-5.5,14h34.3
		c-0.3-6.1-1.8-10.7-4.6-14c-2.8-3.2-6.7-4.9-11.8-4.9C967.3,144.8,963.2,146.4,960.1,149.7z"/>
        <path class="st0" d="M1065.9,171.4h-46.1c1,13.8,7.8,20.7,20.6,20.7c7.5,0,14.2-2.4,20.3-7.3l4.1,9.5c-3,2.6-6.8,4.6-11.2,6.1
		c-4.5,1.5-9,2.3-13.6,2.3c-10.4,0-18.6-3-24.6-8.9c-6-6-9-14.2-9-24.7c0-6.7,1.3-12.6,3.9-17.8c2.6-5.2,6.3-9.2,11.1-12
		c4.8-2.8,10.2-4.3,16.2-4.3c8.8,0,15.7,2.9,20.8,8.5c5,5.7,7.5,13.6,7.5,23.6V171.4z M1025.5,149.7c-3.1,3.3-4.9,7.9-5.5,14h34.3
		c-0.3-6.1-1.8-10.7-4.6-14c-2.8-3.2-6.7-4.9-11.8-4.9C1032.7,144.8,1028.6,146.4,1025.5,149.7z"/>
        <path class="st0" d="M1135.1,161.2v40.5h-13.5v-39.8c0-5.5-1.1-9.6-3.3-12.2c-2.2-2.6-5.6-3.9-10.2-3.9c-5.4,0-9.8,1.7-13.1,5.1
		c-3.3,3.4-4.9,7.9-4.9,13.6v37.1h-13.5v-65.2h13.2V147c2.1-3.9,5.1-6.9,8.9-8.9c3.8-2,8.1-3.1,13-3.1
		C1127.3,134.9,1135.1,143.7,1135.1,161.2z"/>
</g>
    <g>
	<linearGradient id="SVGID_1_" gradientUnits="userSpaceOnUse" x1="58.3595" y1="234.4081" x2="418.0853" y2="26.7203">
		<stop offset="0" style="stop-color:#08AEEA"/>
        <stop offset="1" style="stop-color:#2AF598"/>
	</linearGradient>
        <path class="st1" d="M383,255.7H93.3c-21.7,0-39.3-17.6-39.3-39.3V45.2c0-22.1,17.9-40,40-40h289c21.7,0,39.3,17.6,39.3,39.3v171.8
		C422.3,238.1,404.7,255.7,383,255.7z"/>
        <linearGradient id="SVGID_2_" gradientUnits="userSpaceOnUse" x1="9.1938" y1="75.706" x2="368.9196"
                        y2="283.3938">
		<stop offset="0" style="stop-color:#21D4FD"/>
            <stop offset="1" style="stop-color:#B721FF"/>
	</linearGradient>
        <path class="st2" d="M333.9,304.8H44.2c-21.7,0-39.3-17.6-39.3-39.3V93.6c0-21.7,17.6-39.3,39.3-39.3h289.7
		c21.7,0,39.3,17.6,39.3,39.3v171.8C373.2,287.2,355.6,304.8,333.9,304.8z"/>
</g>
</svg>
