<?xml version="1.0" encoding="utf-8"?>
<!-- Generator: Adobe Illustrator 21.1.0, SVG Export Plug-In . SVG Version: 6.00 Build 0)  -->
<svg version="1.1" id="Warstwa_1" xmlns="http://www.w3.org/2000/svg" xmlns:xlink="http://www.w3.org/1999/xlink" x="0px" y="0px"
	 viewBox="0 0 1453 310" style="enable-background:new 0 0 1453 310;" xml:space="preserve">
<style type="text/css">
	.st0{opacity:0.75;fill:url(#SVGID_1_);}
	.st1{opacity:0.75;fill:url(#SVGID_2_);}
	.st2{fill:#3B3B3B;}
</style>
<g>
	<linearGradient id="SVGID_1_" gradientUnits="userSpaceOnUse" x1="58.3595" y1="234.4081" x2="418.0853" y2="26.7203">
		<stop  offset="0" style="stop-color:#08AEEA"/>
		<stop  offset="1" style="stop-color:#2AF598"/>
	</linearGradient>
	<path class="st0" d="M383,255.7H93.3c-21.7,0-39.3-17.6-39.3-39.3V45.2c0-22.1,17.9-40,40-40h289c21.7,0,39.3,17.6,39.3,39.3v171.8
		C422.3,238.1,404.7,255.7,383,255.7z"/>
	<linearGradient id="SVGID_2_" gradientUnits="userSpaceOnUse" x1="9.1938" y1="75.706" x2="368.9196" y2="283.3938">
		<stop  offset="0" style="stop-color:#21D4FD"/>
		<stop  offset="1" style="stop-color:#B721FF"/>
	</linearGradient>
	<path class="st1" d="M333.9,304.8H44.2c-21.7,0-39.3-17.6-39.3-39.3V93.6c0-21.7,17.6-39.3,39.3-39.3h289.7
		c21.7,0,39.3,17.6,39.3,39.3v171.8C373.2,287.2,355.6,304.8,333.9,304.8z"/>
</g>
<g>
	<path class="st2" d="M518,217.2l8-18c10.1,4.5,18.7,6.7,25.9,6.7c4.1,0,7.8-0.7,11.2-2.2c3.4-1.5,5.1-3.6,5.1-6.3
		c0-5.3-5.8-9.7-17.4-13.3c-9.4-3.1-17.2-7.1-23.5-12c-6.3-4.9-9.4-11.1-9.4-18.6c0-9.4,3.5-16.8,10.4-22.2
		c6.9-5.4,16.3-8.1,28.2-8.1c4.6,0,10.3,1,17,2.9c6.7,1.9,12.3,4.4,17,7.6l-8,17.8c-5.2-2.3-9.8-4-13.8-5.1c-4-1.1-8.2-1.6-12.6-1.6
		c-3.4,0-6.2,0.9-8.5,2.6c-2.2,1.7-3.4,3.7-3.4,6c0,1.8,1.3,3.4,4,4.8c2.7,1.4,6.5,3,11.5,4.8c9.7,3.5,17.7,8,24.1,13.5
		c6.4,5.4,9.6,12.1,9.6,20c0,9.9-3.5,17.6-10.6,23c-7.1,5.4-17.3,8.1-30.6,8.1c-5,0-11-0.9-17.8-2.7
		C527.7,223,522.2,220.4,518,217.2z"/>
	<path class="st2" d="M696.1,133.2c5,7.1,7.6,17,7.6,29.6v62.1h-26.6v-60.9c0-6.1-1.3-10.9-3.8-14.3c-2.5-3.4-6-5.1-10.5-5.1
		c-4.6,0-9,1.1-13.1,3.2c-4.1,2.1-8.6,4.9-13.5,8.5v68.6h-26.3V83l26.3-2.2v52.7c5.6-3.4,11.4-6.1,17.4-8c6-1.9,11.4-2.9,16.1-2.9
		C682.3,122.6,691.1,126.1,696.1,133.2z"/>
	<path class="st2" d="M736.3,111.8c-4.1,0-7.6-1.4-10.4-4.3c-2.9-2.9-4.3-6.4-4.3-10.6c0-4.2,1.4-7.8,4.3-10.6
		c2.9-2.9,6.3-4.3,10.4-4.3c4.2,0,7.8,1.4,10.7,4.3c2.9,2.9,4.4,6.4,4.4,10.6c0,4.2-1.5,7.8-4.4,10.6
		C744.1,110.4,740.5,111.8,736.3,111.8z M723.3,224.9v-99.1h26.6v99.1H723.3z"/>
	<path class="st2" d="M761.4,146.5v-20.4h15.3v-7.6c0-11.6,3.4-20.6,10.2-27.2c6.8-6.5,16.3-9.8,28.4-9.8c3.1,0,6.7,0.6,10.6,1.8
		c3.9,1.2,7,2.7,9.2,4.5l-7.6,19.2c-4.5-1.8-8.2-2.7-11-2.7c-4.5,0-7.8,1.6-10,4.8c-2.2,3.2-3.3,7.5-3.3,13v3.9h18.8l8.4,20.4h-27.2
		v78.4h-26.6v-78.4H761.4z"/>
	<path class="st2" d="M892.8,126.1l8.2,20.4h-26.1v42.1c0,5.3,1.3,9.6,3.8,12.9c2.5,3.3,6.1,4.9,10.7,4.9c3.5,0,7.1-0.9,10.8-2.7
		l7.8,19.2c-2,1.6-5.1,3.1-9.1,4.3c-4,1.2-7.7,1.8-10.9,1.8c-12.4,0-22.1-3.1-29-9.4c-6.9-6.3-10.4-15-10.4-26.3v-46.8h-13.3v-20.4
		h13.3v-23.5l26.3-4.7v28.2H892.8z"/>
	<path class="st2" d="M915.8,218.6l6.1-13.7c9.3,4.5,18.1,6.7,26.6,6.7c6.5,0,11.7-1.2,15.6-3.5c3.9-2.3,5.8-5.4,5.8-9.2
		c0-6.8-7.4-12.5-22.1-17.2c-21.6-7.1-32.5-17-32.5-29.8c0-9,3.4-16,10.1-21.1c6.7-5.1,15.9-7.7,27.5-7.7c4.6,0,10.1,0.9,16.4,2.7
		c6.3,1.8,11.5,4,15.4,6.7l-6.1,13.3c-4.8-2.2-9.1-3.8-13.1-5c-3.9-1.2-8.3-1.7-13.1-1.7c-5.2,0-9.4,1.2-12.8,3.6
		c-3.3,2.4-5,5.3-5,8.9c0.1,2.7,1.9,5.2,5.4,7.6c3.5,2.3,8.5,4.6,15,6.7c22.3,8,33.5,18.7,33.5,32.1c0,9.4-3.5,16.7-10.4,21.9
		c-6.9,5.2-16.9,7.8-29.8,7.8c-4.8,0-10.5-0.8-17.1-2.5C924.9,223.5,919.7,221.3,915.8,218.6z"/>
	<path class="st2" d="M1076,204.1l5.9,14.1c-4.1,2.7-9.6,5-16.4,6.7c-6.9,1.8-12.6,2.7-17.3,2.7c-9.9,0-18.6-2.2-26-6.5
		c-7.4-4.4-13.1-10.5-17.2-18.4c-4-7.9-6-17-6-27.4c0-10.2,2-19.3,6.1-27.2c4.1-7.9,9.9-14,17.5-18.4c7.6-4.4,16.4-6.5,26.4-6.5
		c4.5,0,10.1,0.9,17,2.8c6.8,1.8,12.3,4.1,16.3,6.8l-5.7,13.9c-5.6-2.3-10.3-4-14.2-5.1c-3.9-1.1-8.4-1.6-13.6-1.6
		c-9,0-16.2,3.3-21.5,10c-5.4,6.7-8.1,15-8.3,25.1c0,10.6,2.6,19.2,7.8,25.8c5.2,6.6,12.3,9.9,21.4,9.9c5.6,0,10.4-0.5,14.5-1.6
		C1066.8,208.1,1071.2,206.4,1076,204.1z"/>
	<path class="st2" d="M1117.4,224.9h-19.6v-99.1h11l6.3,16.1c4.6-3.9,10.1-7.6,16.4-11c6.3-3.4,11.9-5.1,16.6-5.1l4.3,15.7
		c-5.2,0-11,1.7-17.6,5.2c-6.5,3.5-12.4,7.7-17.6,12.6V224.9z"/>
	<path class="st2" d="M1249.4,179.8h-70.3c0.8,9.7,3.9,17.3,9.3,22.9c5.4,5.6,13.4,8.4,24,8.4c5.2,0,9.7-0.6,13.6-1.9
		c3.9-1.3,9.3-3.6,16.2-6.8l6.1,14.3c-12,7.2-24,10.8-35.9,10.8c-17.3,0-30.6-4.7-39.8-14.1c-9.3-9.4-13.9-22.1-13.9-38
		c0-10.2,1.9-19.3,5.7-27.2c3.8-7.9,9.3-14,16.4-18.4c7.1-4.4,15.6-6.5,25.2-6.5c14.3,0,25.1,4.8,32.4,14.4
		c7.3,9.6,10.9,21.9,10.9,36.9V179.8z M1179.5,166.5h50.9c-2.6-17.7-10.9-26.6-24.9-26.6c-7.5,0-13.4,2.3-17.9,7
		C1183.1,151.7,1180.5,158.2,1179.5,166.5z"/>
	<path class="st2" d="M1350.2,179.8H1280c0.8,9.7,3.9,17.3,9.3,22.9c5.4,5.6,13.4,8.4,24,8.4c5.2,0,9.7-0.6,13.6-1.9
		c3.9-1.3,9.3-3.6,16.2-6.8l6.1,14.3c-12,7.2-24,10.8-35.9,10.8c-17.3,0-30.6-4.7-39.8-14.1c-9.3-9.4-13.9-22.1-13.9-38
		c0-10.2,1.9-19.3,5.7-27.2c3.8-7.9,9.3-14,16.4-18.4c7.1-4.4,15.6-6.5,25.2-6.5c14.3,0,25.1,4.8,32.4,14.4
		c7.3,9.6,10.9,21.9,10.9,36.9V179.8z M1280.4,166.5h50.9c-2.6-17.7-10.9-26.6-24.9-26.6c-7.5,0-13.4,2.3-17.9,7
		C1284,151.7,1281.3,158.2,1280.4,166.5z"/>
	<path class="st2" d="M1386.2,224.9h-19.6v-99.1h13.7l3.5,13.1c5.3-4.8,11.3-8.7,18-11.7c6.7-3.1,13.3-4.6,19.8-4.6
		c10.8,0,18.8,3.3,24,10c5.2,6.7,7.9,15.7,7.9,27v65.4h-19.6v-63.5c0-7.2-1.2-12.7-3.6-16.4c-2.4-3.7-6.6-5.6-12.8-5.6
		c-4.6,0-9.7,1.5-15.1,4.4c-5.4,2.9-10.8,6.7-16.1,11.3V224.9z"/>
</g>
</svg>
