<svg width="465" height="96" viewBox="0 0 465 96" fill="none" xmlns="http://www.w3.org/2000/svg">
<g clip-path="url(#clip0)">
<path opacity="0.75" d="M121.154 80.2672H28.3257C21.3724 80.2672 15.7329 74.6276 15.7329 67.6743V12.8171C15.7329 5.73566 21.4686 0 28.55 0H121.154C128.107 0 133.746 5.63953 133.746 12.5928V67.6423C133.746 74.6276 128.107 80.2672 121.154 80.2672Z" fill="url(#paint0_linear)"/>
<path opacity="0.75" d="M105.421 96.0001H12.5928C5.63953 96.0001 0 90.3605 0 83.4072V28.3257C0 21.3724 5.63953 15.7329 12.5928 15.7329H105.421C112.374 15.7329 118.014 21.3724 118.014 28.3257V83.3752C118.014 90.3605 112.374 96.0001 105.421 96.0001Z" fill="url(#paint1_linear)"/>
<path d="M164.411 67.9303L166.975 62.1626C170.211 63.6045 172.967 64.3094 175.274 64.3094C176.588 64.3094 177.773 64.0851 178.863 63.6045C179.952 63.1239 180.497 62.451 180.497 61.5858C180.497 59.8875 178.638 58.4777 174.921 57.3241C171.909 56.3308 169.41 55.0491 167.391 53.479C165.373 51.9089 164.379 49.9222 164.379 47.519C164.379 44.507 165.501 42.1358 167.712 40.4055C169.923 38.6752 172.935 37.8101 176.748 37.8101C178.222 37.8101 180.048 38.1305 182.195 38.7393C184.342 39.3481 186.136 40.1492 187.642 41.1746L185.079 46.8782C183.413 46.1412 181.939 45.5965 180.657 45.244C179.375 44.8915 178.03 44.7313 176.62 44.7313C175.53 44.7313 174.633 45.0197 173.896 45.5644C173.191 46.1091 172.807 46.75 172.807 47.487C172.807 48.0637 173.223 48.5764 174.088 49.025C174.954 49.4736 176.171 49.9863 177.773 50.5631C180.881 51.6846 183.445 53.1265 185.496 54.8889C187.546 56.6192 188.572 58.766 188.572 61.2974C188.572 64.4697 187.45 66.9369 185.175 68.6673C182.9 70.3976 179.632 71.2627 175.37 71.2627C173.768 71.2627 171.845 70.9743 169.666 70.3976C167.52 69.7887 165.757 68.9556 164.411 67.9303Z" fill="#3B3B3B"/>
<path d="M221.479 41.0145C223.082 43.2896 223.915 46.4618 223.915 50.4992V70.3978H215.391V50.8837C215.391 48.9291 214.975 47.391 214.174 46.3016C213.373 45.2121 212.251 44.6674 210.809 44.6674C209.335 44.6674 207.925 45.0199 206.612 45.6928C205.298 46.3657 203.856 47.2629 202.286 48.4164V70.3978H193.859V24.9291L202.286 24.2241V41.1107C204.08 40.0212 205.939 39.1561 207.861 38.5472C209.784 37.9384 211.514 37.618 213.02 37.618C217.058 37.618 219.877 38.7395 221.479 41.0145Z" fill="#3B3B3B"/>
<path d="M234.361 34.1576C233.047 34.1576 231.925 33.709 231.028 32.7798C230.131 31.8506 229.65 30.7291 229.65 29.3833C229.65 28.0375 230.099 26.8839 231.028 25.9867C231.957 25.0575 233.047 24.6089 234.361 24.6089C235.706 24.6089 236.86 25.0575 237.789 25.9867C238.719 26.916 239.199 28.0375 239.199 29.3833C239.199 30.7291 238.719 31.8826 237.789 32.7798C236.86 33.709 235.706 34.1576 234.361 34.1576ZM230.195 70.398V38.6436H238.719V70.398H230.195Z" fill="#3B3B3B"/>
<path d="M242.404 45.2765V38.7398H247.306V36.3046C247.306 32.5876 248.396 29.7037 250.574 27.5889C252.753 25.5061 255.797 24.4487 259.675 24.4487C260.668 24.4487 261.821 24.641 263.071 25.0255C264.321 25.41 265.314 25.8907 266.019 26.4674L263.584 32.6196C262.142 32.0429 260.956 31.7545 260.059 31.7545C258.617 31.7545 257.56 32.2672 256.855 33.2925C256.15 34.3179 255.797 35.6957 255.797 37.4581V38.7078H261.821L264.513 45.2445H255.797V70.366H247.274V45.2445H242.404V45.2765Z" fill="#3B3B3B"/>
<path d="M284.508 38.7397L287.135 45.2764H278.772V58.7664C278.772 60.4647 279.189 61.8425 279.99 62.8999C280.791 63.9573 281.944 64.47 283.418 64.47C284.54 64.47 285.693 64.1816 286.879 63.6049L289.378 69.7571C288.737 70.2698 287.744 70.7504 286.462 71.1349C285.181 71.5194 283.995 71.7117 282.97 71.7117C278.996 71.7117 275.888 70.7184 273.677 68.6997C271.466 66.681 270.345 63.8933 270.345 60.2724V45.2764H266.083V38.7397H270.345V31.2096L278.772 29.7036V38.7397H284.508Z" fill="#3B3B3B"/>
<path d="M291.878 68.3792L293.832 63.9893C296.812 65.4312 299.632 66.1362 302.356 66.1362C304.438 66.1362 306.105 65.7517 307.354 65.0147C308.604 64.2777 309.213 63.2844 309.213 62.0667C309.213 59.8878 306.842 58.0614 302.131 56.5554C295.21 54.2804 291.717 51.1081 291.717 47.0066C291.717 44.1228 292.807 41.8798 294.954 40.2456C297.101 38.6114 300.049 37.7783 303.766 37.7783C305.239 37.7783 307.002 38.0667 309.021 38.6435C311.039 39.2202 312.705 39.9252 313.955 40.7903L312 45.052C310.462 44.3471 309.085 43.8344 307.803 43.4499C306.553 43.0654 305.143 42.9052 303.605 42.9052C301.939 42.9052 300.593 43.2897 299.504 44.0587C298.446 44.8277 297.902 45.757 297.902 46.9105C297.934 47.7757 298.51 48.5767 299.632 49.3458C300.753 50.0827 302.356 50.8197 304.438 51.4926C311.584 54.0561 315.173 57.4846 315.173 61.7784C315.173 64.7904 314.051 67.1295 311.84 68.7957C309.629 70.462 306.425 71.2951 302.292 71.2951C300.753 71.2951 298.927 71.0387 296.812 70.494C294.794 69.9493 293.127 69.2443 291.878 68.3792Z" fill="#3B3B3B"/>
<path d="M343.21 63.7327L345.101 68.2507C343.787 69.1159 342.024 69.8528 339.846 70.3976C337.635 70.9743 335.808 71.2627 334.302 71.2627C331.13 71.2627 328.342 70.5578 325.971 69.1799C323.6 67.7701 321.773 65.8154 320.46 63.2841C319.178 60.7527 318.537 57.8368 318.537 54.5043C318.537 51.236 319.178 48.3201 320.492 45.7887C321.805 43.2573 323.664 41.3027 326.099 39.8928C328.534 38.483 331.354 37.8101 334.558 37.8101C336 37.8101 337.795 38.0984 340.006 38.7073C342.185 39.284 343.947 40.021 345.229 40.8862L343.402 45.3401C341.608 44.6031 340.102 44.0584 338.852 43.7059C337.603 43.3535 336.161 43.1932 334.494 43.1932C331.611 43.1932 329.303 44.2507 327.605 46.3975C325.875 48.5444 325.01 51.2039 324.946 54.4403C324.946 57.8368 325.779 60.5925 327.445 62.7073C329.111 64.8221 331.386 65.8795 334.302 65.8795C336.097 65.8795 337.635 65.7193 338.948 65.3668C340.262 65.0144 341.672 64.4697 343.21 63.7327Z" fill="#3B3B3B"/>
<path d="M356.476 70.3979H350.196V38.6436H353.72L355.739 43.8024C357.213 42.5528 358.975 41.3672 360.994 40.2777C363.013 39.1883 364.807 38.6436 366.313 38.6436L367.691 43.6743C366.025 43.6743 364.166 44.219 362.051 45.3405C359.969 46.462 358.078 47.8078 356.412 49.3779V70.3979H356.476Z" fill="#3B3B3B"/>
<path d="M398.772 55.9469H376.246C376.502 59.0551 377.496 61.4903 379.226 63.2847C380.956 65.0791 383.52 65.9763 386.916 65.9763C388.583 65.9763 390.024 65.7841 391.274 65.3675C392.524 64.951 394.254 64.214 396.465 63.1886L398.42 67.7707C394.575 70.0778 390.729 71.2313 386.916 71.2313C381.373 71.2313 377.111 69.7253 374.163 66.7133C371.183 63.7013 369.709 59.6319 369.709 54.5371C369.709 51.2687 370.318 48.3528 371.536 45.8214C372.753 43.29 374.516 41.3354 376.791 39.9256C379.066 38.5157 381.789 37.8428 384.866 37.8428C389.448 37.8428 392.908 39.3808 395.247 42.4569C397.587 45.533 398.74 49.4743 398.74 54.2807V55.9469H398.772ZM376.374 51.6853H392.684C391.851 46.0137 389.191 43.1619 384.705 43.1619C382.302 43.1619 380.412 43.8989 378.97 45.4049C377.528 46.9429 376.695 49.0257 376.374 51.6853Z" fill="#3B3B3B"/>
<path d="M431.071 55.9469H408.577C408.834 59.0551 409.827 61.4903 411.557 63.2847C413.288 65.0791 415.851 65.9763 419.248 65.9763C420.914 65.9763 422.356 65.7841 423.605 65.3675C424.855 64.951 426.585 64.214 428.796 63.1886L430.751 67.7707C426.906 70.0778 423.061 71.2313 419.248 71.2313C413.704 71.2313 409.443 69.7253 406.495 66.7133C403.515 63.7013 402.041 59.6319 402.041 54.5371C402.041 51.2687 402.649 48.3528 403.867 45.8214C405.085 43.29 406.847 41.3354 409.122 39.9256C411.397 38.5157 414.121 37.8428 417.197 37.8428C421.779 37.8428 425.24 39.3808 427.579 42.4569C429.918 45.533 431.071 49.4743 431.071 54.2807V55.9469ZM408.706 51.6853H425.015C424.182 46.0137 421.523 43.1619 417.037 43.1619C414.633 43.1619 412.743 43.8989 411.301 45.4049C409.859 46.9429 408.994 49.0257 408.706 51.6853Z" fill="#3B3B3B"/>
<path d="M442.607 70.3979H436.326V38.6435H440.716L441.838 42.8411C443.536 41.3031 445.459 40.0534 447.605 39.0921C449.752 38.0988 451.867 37.6182 453.95 37.6182C457.41 37.6182 459.974 38.6756 461.64 40.8224C463.306 42.9693 464.171 45.8532 464.171 49.474V70.43H457.891V50.0828C457.891 47.7757 457.507 46.0134 456.738 44.8278C455.969 43.6422 454.623 43.0334 452.636 43.0334C451.162 43.0334 449.528 43.514 447.798 44.4433C446.067 45.3725 444.337 46.5901 442.639 48.0641V70.3979H442.607Z" fill="#3B3B3B"/>
</g>
<defs>
<linearGradient id="paint0_linear" x1="17.1298" y1="73.4446" x2="132.396" y2="6.89572" gradientUnits="userSpaceOnUse">
<stop stop-color="#08AEEA"/>
<stop offset="1" stop-color="#2AF598"/>
</linearGradient>
<linearGradient id="paint1_linear" x1="1.37585" y1="22.592" x2="116.642" y2="89.1409" gradientUnits="userSpaceOnUse">
<stop stop-color="#21D4FD"/>
<stop offset="1" stop-color="#B721FF"/>
</linearGradient>
<clipPath id="clip0">
<rect width="464.172" height="96.0001" fill="white"/>
</clipPath>
</defs>
</svg>
