<?xml version="1.0" encoding="utf-8"?>
<!-- Generator: Adobe Illustrator 21.1.0, SVG Export Plug-In . SVG Version: 6.00 Build 0)  -->
<svg version="1.1" id="Warstwa_1" xmlns="http://www.w3.org/2000/svg" xmlns:xlink="http://www.w3.org/1999/xlink" x="0px" y="0px"
	 viewBox="0 0 498.6 68.1" style="enable-background:new 0 0 498.6 68.1;" xml:space="preserve">
<style type="text/css">
	.st0{fill:#FDCF08;}
	.st1{fill:#1E2027;}
</style>
<g>
	<g>
		<path class="st0" d="M11.6,49.8c-3.9,0-7.8,0-11.6,0C1.4,42,2.7,34.1,4.1,26.3c5,0,10.1,0,15.1,0c-1.5,4.4-3,8.7-4.5,13.1
			c4.2,0,8.5,0,12.7-0.1c-6.5,9.6-13.1,19.2-19.6,28.8C9.1,62,10.4,55.9,11.6,49.8z"/>
		<path class="st1" d="M92.4,0L92.4,0H7.6C3.4,0,0,3.4,0,7.6v11.3h7.6V7.6h84.8v52.9l-66.3,0v7.6h66.3c4.2,0,7.6-3.4,7.6-7.6V7.6
			C100,3.4,96.6,0,92.4,0z"/>
	</g>
	<g>
		<path class="st0" d="M146.6,16.1c2.3,0,4.3,0.3,6,0.8c1.7,0.5,3.1,1.3,4.2,2.3s1.9,2.1,2.5,3.5c0.5,1.4,0.8,2.8,0.8,4.5
			c0,1.7-0.3,3.2-0.8,4.6c-0.6,1.4-1.4,2.6-2.5,3.6c-1.1,1-2.5,1.8-4.2,2.4c-1.7,0.6-3.7,0.8-5.9,0.8h-4.8v12.2h-6.5V16.1H146.6z
			 M146.6,33.6c1.2,0,2.2-0.1,3.1-0.4c0.9-0.3,1.6-0.7,2.2-1.3c0.6-0.6,1-1.2,1.3-2s0.4-1.7,0.4-2.7c0-0.9-0.1-1.8-0.4-2.5
			c-0.3-0.8-0.7-1.4-1.3-1.9c-0.6-0.5-1.3-0.9-2.2-1.2c-0.9-0.3-1.9-0.4-3.1-0.4h-4.8v12.5H146.6z"/>
		<path class="st0" d="M173.9,25.8c1.8,0,3.5,0.3,5,0.9c1.5,0.6,2.8,1.4,3.8,2.5c1.1,1.1,1.9,2.4,2.5,4c0.6,1.6,0.9,3.3,0.9,5.3
			c0,2-0.3,3.7-0.9,5.3c-0.6,1.6-1.4,2.9-2.5,4c-1.1,1.1-2.3,2-3.8,2.5c-1.5,0.6-3.2,0.9-5,0.9c-1.8,0-3.5-0.3-5-0.9
			c-1.5-0.6-2.8-1.4-3.9-2.5c-1.1-1.1-1.9-2.4-2.5-4c-0.6-1.6-0.9-3.3-0.9-5.3c0-1.9,0.3-3.7,0.9-5.3c0.6-1.6,1.4-2.9,2.5-4
			c1.1-1.1,2.3-1.9,3.9-2.5C170.3,26.1,172,25.8,173.9,25.8z M173.9,46.6c2,0,3.6-0.7,4.5-2.1s1.5-3.4,1.5-6s-0.5-4.7-1.5-6.1
			c-1-1.4-2.5-2.1-4.5-2.1c-2.1,0-3.6,0.7-4.6,2.1c-1,1.4-1.5,3.4-1.5,6.1c0,2.6,0.5,4.7,1.5,6C170.2,45.9,171.8,46.6,173.9,46.6z"
			/>
		<path class="st0" d="M225.3,26.2l-7.8,24.6h-4.8c-0.5,0-0.9-0.4-1.1-1.1l-4.4-14.2c-0.1-0.5-0.3-1-0.4-1.4s-0.2-0.9-0.3-1.4
			c-0.1,0.5-0.2,1-0.3,1.5c-0.1,0.5-0.3,1-0.4,1.5l-4.5,14.2c-0.2,0.7-0.6,1.1-1.3,1.1h-4.6l-7.8-24.6h4.7c0.4,0,0.8,0.1,1.1,0.3
			c0.3,0.2,0.5,0.5,0.6,0.8l3.5,13.2c0.2,0.7,0.3,1.4,0.5,2.1c0.1,0.7,0.3,1.4,0.3,2.1c0.2-0.7,0.4-1.4,0.6-2.1
			c0.2-0.7,0.4-1.4,0.6-2.1l4.1-13.2c0.1-0.3,0.3-0.6,0.6-0.8s0.6-0.3,1-0.3h2.6c0.4,0,0.8,0.1,1.1,0.3s0.5,0.5,0.6,0.8l4,13.2
			c0.2,0.7,0.4,1.4,0.6,2.1c0.2,0.7,0.4,1.4,0.5,2.1c0.2-1.4,0.5-2.8,0.9-4.2l3.6-13.2c0.1-0.3,0.3-0.6,0.6-0.8
			c0.3-0.2,0.6-0.3,1-0.3H225.3z"/>
		<path class="st0" d="M232.8,39.3c0.1,1.3,0.3,2.4,0.7,3.3c0.4,0.9,0.8,1.7,1.4,2.3s1.3,1,2.1,1.3c0.8,0.3,1.7,0.4,2.6,0.4
			s1.8-0.1,2.5-0.3s1.3-0.5,1.8-0.7c0.5-0.3,1-0.5,1.4-0.7c0.4-0.2,0.8-0.3,1.1-0.3c0.5,0,0.9,0.2,1.1,0.6l1.7,2.2
			c-0.7,0.8-1.4,1.4-2.2,1.9c-0.8,0.5-1.7,0.9-2.6,1.2c-0.9,0.3-1.8,0.5-2.7,0.7s-1.8,0.2-2.7,0.2c-1.7,0-3.3-0.3-4.8-0.9
			c-1.5-0.6-2.8-1.4-3.8-2.5s-1.9-2.5-2.6-4.1c-0.6-1.6-0.9-3.5-0.9-5.7c0-1.7,0.3-3.3,0.8-4.7c0.5-1.5,1.3-2.8,2.3-3.9
			c1-1.1,2.3-2,3.7-2.6s3.1-1,5-1c1.6,0,3,0.2,4.3,0.7c1.3,0.5,2.4,1.2,3.4,2.2s1.7,2.1,2.2,3.5c0.5,1.4,0.8,3,0.8,4.7
			c0,0.9-0.1,1.5-0.3,1.8c-0.2,0.3-0.6,0.5-1.1,0.5H232.8z M244.1,35.7c0-0.8-0.1-1.5-0.3-2.2s-0.5-1.3-1-1.8
			c-0.4-0.5-1-0.9-1.6-1.2c-0.7-0.3-1.4-0.4-2.3-0.4c-1.7,0-3.1,0.5-4,1.5c-1,1-1.6,2.4-1.9,4.2H244.1z"/>
		<path class="st0" d="M259.5,30.5c0.8-1.5,1.7-2.6,2.7-3.5c1.1-0.8,2.3-1.3,3.7-1.3c1.1,0,2,0.2,2.7,0.7l-0.4,4.4
			c-0.1,0.3-0.2,0.5-0.3,0.6c-0.2,0.1-0.4,0.2-0.6,0.2c-0.2,0-0.6,0-1.1-0.1c-0.5-0.1-0.9-0.1-1.4-0.1c-0.7,0-1.2,0.1-1.8,0.3
			c-0.5,0.2-1,0.5-1.4,0.8c-0.4,0.4-0.8,0.8-1.1,1.3c-0.3,0.5-0.6,1.1-0.9,1.8v15.2h-5.9V26.2h3.5c0.6,0,1,0.1,1.3,0.3
			c0.2,0.2,0.4,0.6,0.5,1.2L259.5,30.5z"/>
		<path class="st1" d="M303.1,33.5c0,2.5-0.4,4.9-1.3,7c-0.8,2.1-2,4-3.6,5.5s-3.4,2.7-5.5,3.6c-2.2,0.8-4.6,1.3-7.2,1.3h-13.2V16.1
			h13.2c2.6,0,5,0.4,7.2,1.3s4,2,5.5,3.6c1.5,1.5,2.7,3.4,3.6,5.5C302.7,28.6,303.1,30.9,303.1,33.5z M296.5,33.5
			c0-1.9-0.3-3.6-0.8-5.1c-0.5-1.5-1.2-2.8-2.2-3.8c-1-1-2.1-1.9-3.5-2.4c-1.4-0.6-2.9-0.8-4.6-0.8h-6.7v24.4h6.7
			c1.7,0,3.2-0.3,4.6-0.8c1.4-0.6,2.5-1.4,3.5-2.4c1-1,1.7-2.3,2.2-3.8C296.2,37.1,296.5,35.4,296.5,33.5z"/>
		<path class="st1" d="M306.7,29.6c2.8-2.6,6.2-3.9,10.2-3.9c1.4,0,2.7,0.2,3.9,0.7c1.1,0.5,2.1,1.1,2.9,2c0.8,0.8,1.4,1.8,1.8,3
			c0.4,1.2,0.6,2.4,0.6,3.8v15.6h-2.7c-0.6,0-1-0.1-1.3-0.3c-0.3-0.2-0.5-0.5-0.7-1l-0.5-1.8c-0.6,0.6-1.2,1.1-1.8,1.5
			s-1.2,0.8-1.8,1.1c-0.6,0.3-1.3,0.5-2.1,0.7c-0.7,0.2-1.5,0.2-2.4,0.2c-1,0-2-0.1-2.9-0.4c-0.9-0.3-1.6-0.7-2.3-1.3
			c-0.6-0.6-1.1-1.3-1.5-2.1c-0.4-0.8-0.5-1.8-0.5-2.9c0-0.6,0.1-1.2,0.3-1.9c0.2-0.6,0.5-1.2,1-1.8c0.5-0.6,1.1-1.1,1.8-1.6
			c0.8-0.5,1.7-0.9,2.8-1.3c1.1-0.4,2.4-0.7,3.8-0.9c1.5-0.2,3.1-0.4,5-0.4v-1.4c0-1.6-0.4-2.9-1.1-3.7s-1.7-1.2-3-1.2
			c-1,0-1.8,0.1-2.4,0.3c-0.6,0.2-1.2,0.5-1.7,0.8c-0.5,0.3-0.9,0.5-1.3,0.8c-0.4,0.2-0.8,0.3-1.3,0.3c-0.4,0-0.8-0.1-1.1-0.3
			c-0.3-0.2-0.5-0.5-0.7-0.8L306.7,29.6z M320.2,40.3c-1.7,0.1-3.2,0.2-4.3,0.4c-1.2,0.2-2.1,0.5-2.8,0.8c-0.7,0.3-1.2,0.7-1.5,1.2
			s-0.5,0.9-0.5,1.5c0,1,0.3,1.8,0.9,2.2c0.6,0.4,1.4,0.7,2.4,0.7c1.2,0,2.3-0.2,3.2-0.7s1.8-1.1,2.6-2V40.3z"/>
		<path class="st1" d="M346.6,31c-0.2,0.3-0.3,0.4-0.5,0.5c-0.2,0.1-0.4,0.2-0.7,0.2c-0.3,0-0.6-0.1-0.9-0.2
			c-0.3-0.2-0.7-0.3-1.1-0.5c-0.4-0.2-0.9-0.4-1.5-0.5c-0.6-0.2-1.2-0.2-2-0.2c-1.2,0-2.1,0.2-2.7,0.7c-0.7,0.5-1,1.1-1,1.9
			c0,0.5,0.2,1,0.5,1.3s0.8,0.7,1.4,0.9c0.6,0.3,1.2,0.5,1.9,0.7c0.7,0.2,1.5,0.5,2.2,0.7s1.5,0.5,2.2,0.9s1.4,0.7,1.9,1.2
			c0.6,0.5,1,1.1,1.4,1.8s0.5,1.6,0.5,2.5c0,1.2-0.2,2.3-0.6,3.3s-1.1,1.9-1.9,2.6c-0.8,0.7-1.9,1.3-3.1,1.7s-2.6,0.6-4.2,0.6
			c-0.8,0-1.7-0.1-2.5-0.2c-0.8-0.2-1.6-0.4-2.3-0.6s-1.4-0.6-2.1-1s-1.2-0.8-1.7-1.2l1.4-2.3c0.2-0.3,0.4-0.5,0.6-0.6
			c0.2-0.1,0.5-0.2,0.9-0.2s0.7,0.1,1,0.3s0.7,0.4,1.1,0.7c0.4,0.2,0.9,0.5,1.5,0.7c0.6,0.2,1.3,0.3,2.2,0.3c0.7,0,1.3-0.1,1.8-0.3
			s0.9-0.4,1.2-0.7c0.3-0.3,0.6-0.6,0.7-0.9c0.2-0.4,0.2-0.7,0.2-1.1c0-0.6-0.2-1-0.5-1.4c-0.3-0.4-0.8-0.7-1.4-1
			c-0.6-0.3-1.2-0.5-1.9-0.7c-0.7-0.2-1.5-0.5-2.2-0.7s-1.5-0.6-2.2-0.9c-0.7-0.3-1.4-0.8-1.9-1.3c-0.6-0.5-1-1.2-1.4-1.9
			c-0.3-0.8-0.5-1.7-0.5-2.8c0-1,0.2-2,0.6-2.9c0.4-0.9,1-1.7,1.8-2.4c0.8-0.7,1.7-1.2,2.9-1.6s2.5-0.6,4-0.6c1.7,0,3.2,0.3,4.6,0.8
			c1.4,0.6,2.6,1.3,3.5,2.2L346.6,31z"/>
		<path class="st1" d="M358.6,28.8c1-0.9,2-1.6,3.2-2.2c1.2-0.6,2.5-0.8,4.1-0.8c1.3,0,2.5,0.2,3.6,0.7c1,0.5,1.9,1.1,2.6,1.9
			c0.7,0.8,1.2,1.8,1.6,3c0.4,1.1,0.5,2.4,0.5,3.8v15.7h-5.9V35.2c0-1.5-0.3-2.7-1-3.5c-0.7-0.8-1.7-1.2-3.1-1.2c-1,0-2,0.2-2.9,0.7
			c-0.9,0.5-1.7,1.1-2.5,1.9v17.8h-5.9V15.2h5.9V28.8z"/>
		<path class="st1" d="M385.7,29.2c1-1,2.1-1.9,3.3-2.5c1.2-0.6,2.6-0.9,4.1-0.9c1.4,0,2.7,0.3,3.9,0.8c1.1,0.6,2.1,1.4,2.9,2.4
			c0.8,1,1.4,2.3,1.9,3.8c0.4,1.5,0.6,3.2,0.6,5c0,2-0.2,3.8-0.7,5.4c-0.5,1.6-1.2,3-2.1,4.2s-2,2.1-3.3,2.7c-1.3,0.6-2.7,1-4.3,1
			c-0.8,0-1.5-0.1-2.1-0.2c-0.6-0.2-1.2-0.4-1.7-0.6c-0.5-0.3-1-0.6-1.5-1c-0.4-0.4-0.9-0.8-1.3-1.3l-0.3,1.7
			c-0.1,0.4-0.3,0.7-0.5,0.9c-0.2,0.2-0.5,0.3-0.9,0.3h-3.9V15.2h5.9V29.2z M385.7,44.4c0.7,0.8,1.4,1.4,2.2,1.7
			c0.8,0.3,1.6,0.5,2.5,0.5c0.9,0,1.7-0.2,2.5-0.5c0.7-0.3,1.3-0.8,1.9-1.5s0.9-1.6,1.2-2.7c0.3-1.1,0.4-2.4,0.4-3.9
			c0-2.7-0.4-4.7-1.3-5.9c-0.9-1.2-2.2-1.8-3.9-1.8c-1.1,0-2.1,0.3-3,0.8c-0.8,0.5-1.7,1.3-2.4,2.2V44.4z"/>
		<path class="st1" d="M417.9,25.8c1.8,0,3.5,0.3,5,0.9c1.5,0.6,2.8,1.4,3.8,2.5c1.1,1.1,1.9,2.4,2.5,4c0.6,1.6,0.9,3.3,0.9,5.3
			c0,2-0.3,3.7-0.9,5.3c-0.6,1.6-1.4,2.9-2.5,4c-1.1,1.1-2.3,2-3.8,2.5s-3.2,0.9-5,0.9c-1.8,0-3.5-0.3-5-0.9s-2.8-1.4-3.9-2.5
			c-1.1-1.1-1.9-2.4-2.5-4c-0.6-1.6-0.9-3.3-0.9-5.3c0-1.9,0.3-3.7,0.9-5.3c0.6-1.6,1.4-2.9,2.5-4c1.1-1.1,2.3-1.9,3.9-2.5
			C414.4,26.1,416.1,25.8,417.9,25.8z M417.9,46.6c2,0,3.6-0.7,4.5-2.1s1.5-3.4,1.5-6s-0.5-4.7-1.5-6.1c-1-1.4-2.5-2.1-4.5-2.1
			c-2.1,0-3.6,0.7-4.6,2.1c-1,1.4-1.5,3.4-1.5,6.1c0,2.6,0.5,4.7,1.5,6S415.8,46.6,417.9,46.6z"/>
		<path class="st1" d="M434,29.6c2.8-2.6,6.2-3.9,10.2-3.9c1.4,0,2.7,0.2,3.9,0.7c1.1,0.5,2.1,1.1,2.9,2c0.8,0.8,1.4,1.8,1.8,3
			c0.4,1.2,0.6,2.4,0.6,3.8v15.6h-2.7c-0.6,0-1-0.1-1.3-0.3c-0.3-0.2-0.5-0.5-0.7-1l-0.5-1.8c-0.6,0.6-1.2,1.1-1.8,1.5
			s-1.2,0.8-1.8,1.1c-0.6,0.3-1.3,0.5-2.1,0.7c-0.7,0.2-1.5,0.2-2.4,0.2c-1,0-2-0.1-2.9-0.4c-0.9-0.3-1.6-0.7-2.3-1.3
			c-0.6-0.6-1.1-1.3-1.5-2.1c-0.4-0.8-0.5-1.8-0.5-2.9c0-0.6,0.1-1.2,0.3-1.9c0.2-0.6,0.5-1.2,1-1.8c0.5-0.6,1.1-1.1,1.8-1.6
			c0.8-0.5,1.7-0.9,2.8-1.3c1.1-0.4,2.4-0.7,3.8-0.9c1.5-0.2,3.1-0.4,5-0.4v-1.4c0-1.6-0.4-2.9-1.1-3.7s-1.7-1.2-3-1.2
			c-1,0-1.8,0.1-2.4,0.3c-0.6,0.2-1.2,0.5-1.7,0.8c-0.5,0.3-0.9,0.5-1.3,0.8c-0.4,0.2-0.8,0.3-1.3,0.3c-0.4,0-0.8-0.1-1.1-0.3
			c-0.3-0.2-0.5-0.5-0.7-0.8L434,29.6z M447.6,40.3c-1.7,0.1-3.2,0.2-4.3,0.4c-1.2,0.2-2.1,0.5-2.8,0.8c-0.7,0.3-1.2,0.7-1.5,1.2
			s-0.5,0.9-0.5,1.5c0,1,0.3,1.8,0.9,2.2c0.6,0.4,1.4,0.7,2.4,0.7c1.2,0,2.3-0.2,3.2-0.7s1.8-1.1,2.6-2V40.3z"/>
		<path class="st1" d="M464.5,30.5c0.8-1.5,1.7-2.6,2.7-3.5c1.1-0.8,2.3-1.3,3.7-1.3c1.1,0,2,0.2,2.7,0.7l-0.4,4.4
			c-0.1,0.3-0.2,0.5-0.3,0.6c-0.2,0.1-0.4,0.2-0.6,0.2c-0.2,0-0.6,0-1.1-0.1c-0.5-0.1-0.9-0.1-1.4-0.1c-0.7,0-1.2,0.1-1.8,0.3
			c-0.5,0.2-1,0.5-1.4,0.8c-0.4,0.4-0.8,0.8-1.1,1.3c-0.3,0.5-0.6,1.1-0.9,1.8v15.2h-5.9V26.2h3.5c0.6,0,1,0.1,1.3,0.3
			c0.2,0.2,0.4,0.6,0.5,1.2L464.5,30.5z"/>
		<path class="st1" d="M497.6,15.2v35.7H494c-0.8,0-1.3-0.4-1.5-1.1l-0.5-2.4c-1,1.1-2.1,2.1-3.4,2.8c-1.3,0.7-2.8,1.1-4.5,1.1
			c-1.3,0-2.6-0.3-3.7-0.8c-1.1-0.6-2.1-1.4-2.9-2.4c-0.8-1.1-1.4-2.4-1.9-3.9c-0.4-1.6-0.7-3.4-0.7-5.4c0-1.8,0.2-3.5,0.7-5.1
			c0.5-1.6,1.2-2.9,2.1-4.1c0.9-1.2,2-2.1,3.3-2.7s2.8-1,4.4-1c1.4,0,2.6,0.2,3.5,0.6c1,0.4,1.8,1,2.6,1.8v-13H497.6z M491.7,32.5
			c-0.7-0.8-1.4-1.4-2.2-1.7s-1.6-0.5-2.6-0.5c-0.9,0-1.7,0.2-2.4,0.5s-1.3,0.8-1.8,1.5c-0.5,0.7-0.9,1.5-1.2,2.6
			c-0.3,1-0.4,2.3-0.4,3.7c0,1.4,0.1,2.7,0.3,3.7c0.2,1,0.6,1.8,1,2.4c0.4,0.6,1,1.1,1.6,1.4s1.3,0.4,2.1,0.4c1.2,0,2.3-0.3,3.1-0.8
			c0.9-0.5,1.7-1.2,2.4-2.2V32.5z"/>
	</g>
</g>
</svg>
